<svg xmlns="http://www.w3.org/2000/svg" viewBox="0 0 64 64" fill="none">
  <!-- Sword blade -->
  <path d="M32 4L34 30H30L32 4Z" fill="#00E5CC" opacity="0.9"/>
  <path d="M32 4L33 28H31L32 4Z" fill="#E8E8ED" opacity="0.3"/>
  <!-- Crossguard -->
  <rect x="22" y="30" width="20" height="4" rx="1" fill="#FF6B47"/>
  <!-- Grip -->
  <rect x="30" y="34" width="4" height="14" rx="1" fill="#2a2d35"/>
  <rect x="30.5" y="36" width="3" height="2" rx="0.5" fill="#3a3d45"/>
  <rect x="30.5" y="40" width="3" height="2" rx="0.5" fill="#3a3d45"/>
  <rect x="30.5" y="44" width="3" height="2" rx="0.5" fill="#3a3d45"/>
  <!-- Pommel -->
  <circle cx="32" cy="51" r="4" fill="#FF6B47"/>
  <circle cx="32" cy="51" r="2" fill="#0A0A0A"/>
  <!-- Lightning effect -->
  <path d="M18 12L22 18L19 18L23 26" stroke="#00E5CC" stroke-width="1.5" stroke-linecap="round" opacity="0.4"/>
  <path d="M46 12L42 18L45 18L41 26" stroke="#00E5CC" stroke-width="1.5" stroke-linecap="round" opacity="0.4"/>
</svg>
